<?xml version="1.0" encoding="utf-8"?>
<!-- Generator: Adobe Illustrator 16.0.0, SVG Export Plug-In . SVG Version: 6.00 Build 0)  -->
<!DOCTYPE svg PUBLIC "-//W3C//DTD SVG 1.1//EN" "http://www.w3.org/Graphics/SVG/1.1/DTD/svg11.dtd">
<svg version="1.1" xmlns="http://www.w3.org/2000/svg" xmlns:xlink="http://www.w3.org/1999/xlink" x="0px" y="0px" width="390px"
	 height="330px" viewBox="0 0 390 330" enable-background="new 0 0 390 330" xml:space="preserve">
<g id="Layer_2">
	<path fill="#550000" d="M378.952,307.047h-0.058v0.002c-0.019,0-0.038-0.002-0.057-0.002H314l-253,0.016v0.002h-7.775
		c-18.369,0-33.255-14.891-33.255-33.256c0-18.369,14.886-33.254,33.255-33.254h284.13c-0.029,0.037-0.056,0.076-0.085,0.113h38.527
		c0.85-0.072,1.704-0.123,2.57-0.129h0.5c5.521-0.012,9.99-4.494,9.99-10.018V151V57h0.016V9.991c0-5.517-4.474-9.991-9.99-9.991
		H53.341C23.901,0.035,0.047,23.889,0.016,53.33V57H0v94v122.805c0.035,29.383,23.842,53.189,53.225,53.221H61h253h64.895
		c5.521,0,9.994-4.475,9.994-9.99C388.889,311.537,384.446,307.078,378.952,307.047z"/>
</g>
<g id="Layer_1">
	<path opacity="0.2" d="M378.895,307.044v0.004c-18.365,0.148-33.372-14.625-33.517-32.989
		c-0.148-18.365,14.624-33.376,32.989-33.521h0.5c5.521-0.012,9.99-4.494,9.99-10.018V151V57h0.016V9.991
		c0-5.517-4.474-9.991-9.99-9.991H53.341C23.901,0.035,0.047,23.889,0.016,53.33V57H0v94v122.805
		c0.035,29.382,23.842,53.188,53.225,53.22H61h253h64.895c5.521,0,9.994-4.474,9.994-9.99S384.415,307.044,378.895,307.044z
		 M19.993,57h0.004v-3.694c0.035-18.396,14.949-33.302,33.344-33.325h315.574V57h-0.016v94v69.525H53.229
		c-1.242,0-2.468,0.109-3.693,0.188c-0.352,0-0.707,0-1.058,0.051c-1.062,0.098-2.101,0.258-3.143,0.41
		c-0.59,0.093-1.179,0.167-1.765,0.272c-1,0.18-1.937,0.406-2.901,0.641c-0.625,0.145-1.246,0.301-1.862,0.496
		c-0.921,0.262-1.827,0.543-2.729,0.852c-0.625,0.215-1.241,0.44-1.854,0.675c-0.871,0.34-1.737,0.679-2.581,1.054
		c-0.617,0.273-1.214,0.578-1.819,0.879c-0.816,0.387-1.64,0.777-2.424,1.222c-0.621,0.34-1.21,0.73-1.815,1.101
		c-1.288,0.793-2.542,1.621-3.752,2.499c-0.613,0.449-1.249,0.878-1.838,1.354V151V57z M53.599,283.814H61v-0.02h253h12.639
		c1.62,8.507,5.298,16.491,10.716,23.249L314,307.047l-253,0.015v0.002h-7.775c-18.369,0-33.255-14.891-33.255-33.255
		c0-18.369,14.886-33.255,33.255-33.255h284.13c-5.418,6.77-9.096,14.761-10.716,23.275H314H61h-7.401
		c-5.517,0-9.99,4.475-9.99,9.995C43.609,279.341,48.083,283.814,53.599,283.814z"/>
	<path d="M482.895,456.047h0.058c-0.02,0-0.038-0.003-0.058-0.003V456.047z"/>
</g>
<g id="Layer_3">
	<path fill="#CC9900" d="M321.4,65H314H61h-7.401c-5.516,0-9.99,4.475-9.99,9.995c0,5.517,4.475,9.99,9.99,9.99H61v-0.02h253v0.02
		h7.4c5.518,0,9.99-4.475,9.99-9.995C331.391,69.474,326.918,65,321.4,65z"/>
</g>
</svg>
